<?xml version="1.0" standalone="no"?>
<!DOCTYPE svg PUBLIC "-//W3C//DTD SVG 20010904//EN"
 "http://www.w3.org/TR/2001/REC-SVG-20010904/DTD/svg10.dtd">
<svg version="1.0" xmlns="http://www.w3.org/2000/svg"
 width="400.000000pt" height="290.000000pt" viewBox="0 0 400.000000 290.000000"
 preserveAspectRatio="xMidYMid meet">

<g transform="translate(0.000000,290.000000) scale(0.100000,-0.100000)"
fill="#000000" stroke="none">
<path d="M3131 2876 c-52 -29 -50 -2 -51 -879 0 -711 2 -822 15 -847 20 -38
43 -50 97 -50 46 0 81 18 98 50 14 26 14 1664 1 1689 -25 47 -108 66 -160 37z"/>
<path d="M743 2800 c-21 -13 -35 -31 -42 -57 -7 -25 -11 -304 -11 -828 0 -886
-4 -841 72 -878 48 -24 108 -10 137 32 21 29 21 38 21 856 l0 827 -34 34 c-40
40 -92 46 -143 14z"/>
<path d="M1598 2655 c-82 -22 -141 -57 -204 -120 -103 -102 -152 -232 -140
-372 l6 -73 -46 0 c-80 0 -133 -60 -121 -136 13 -78 65 -104 209 -104 l103 0
302 -302 303 -303 303 303 302 302 93 0 c133 0 186 28 199 104 11 70 -41 136
-109 136 l-33 0 4 82 c4 100 -11 174 -52 253 -117 223 -392 307 -637 194 l-65
-30 -65 29 c-114 52 -248 66 -352 37z m256 -155 c30 -12 69 -32 88 -45 69 -51
69 -51 133 -6 32 23 81 48 109 56 65 20 180 19 239 -1 100 -34 188 -150 202
-269 9 -66 -16 -166 -51 -212 -32 -42 -552 -563 -562 -563 -4 0 -95 88 -202
195 l-195 195 168 0 c184 0 218 7 255 55 26 32 29 83 7 125 -31 60 -33 60
-342 60 l-283 0 -11 28 c-6 15 -9 61 -7 102 8 125 74 226 182 276 68 32 190
33 270 4z"/>
<path d="M3504 2648 c-17 -4 -41 -19 -55 -34 l-24 -26 0 -593 0 -594 28 -29
c37 -39 86 -48 132 -26 67 31 65 11 65 653 l0 580 -30 35 c-32 36 -68 47 -116
34z"/>
<path d="M384 2546 l-34 -34 0 -581 c0 -648 -2 -629 67 -658 48 -20 92 -10
129 28 l29 30 3 567 c2 384 0 579 -8 604 -15 51 -52 78 -107 78 -38 0 -50 -5
-79 -34z"/>
<path d="M3834 2406 c-65 -28 -64 -24 -64 -413 l0 -353 28 -30 c48 -55 129
-50 174 11 18 24 19 46 19 374 -1 386 0 383 -66 411 -42 17 -51 17 -91 0z"/>
<path d="M70 2332 c-69 -34 -71 -45 -68 -425 l3 -339 39 -35 c35 -32 42 -35
84 -30 35 4 53 12 74 36 l28 31 0 346 c0 384 -1 393 -65 420 -44 18 -53 18
-95 -4z"/>
<path d="M710 505 l0 -185 35 0 34 0 3 73 3 72 88 3 87 3 0 29 0 30 -90 0 -90
0 0 45 0 45 99 0 99 0 4 35 4 35 -138 0 -138 0 0 -185z"/>
<path d="M1120 505 l0 -185 35 0 35 0 0 185 0 185 -35 0 -35 0 0 -185z"/>
<path d="M1320 655 l0 -35 55 0 55 0 0 -150 0 -150 40 0 40 0 0 150 0 150 55
0 55 0 0 35 0 35 -150 0 -150 0 0 -35z"/>
<path d="M1750 505 l0 -185 35 0 35 0 0 115 c0 63 3 115 8 115 4 0 45 -51 92
-113 74 -98 90 -112 118 -115 l32 -3 0 185 0 186 -35 0 -35 0 0 -110 c0 -60
-4 -110 -9 -110 -5 0 -46 50 -91 110 -76 102 -84 110 -116 110 l-34 0 0 -185z"/>
<path d="M2225 505 l0 -185 138 0 137 0 0 35 0 35 -100 0 -100 0 0 40 0 40 84
0 84 0 4 35 4 35 -88 0 -88 0 0 40 0 40 100 0 100 0 0 35 0 35 -137 0 -138 0
0 -185z"/>
<path d="M2678 674 c-35 -19 -48 -43 -48 -91 0 -53 21 -79 83 -98 115 -36 133
-51 101 -86 -22 -25 -70 -24 -119 1 l-39 20 -24 -24 -24 -23 39 -24 c32 -20
51 -24 116 -24 76 0 80 1 108 33 31 35 38 77 18 115 -15 28 -30 37 -114 67
-74 27 -94 52 -59 77 25 18 53 16 96 -6 l36 -18 21 28 21 28 -39 21 c-48 24
-133 26 -173 4z"/>
<path d="M3071 676 c-32 -17 -50 -53 -51 -96 0 -55 22 -77 101 -101 94 -28
116 -51 83 -83 -21 -22 -72 -20 -118 5 -36 19 -39 19 -57 3 -10 -9 -19 -22
-19 -28 0 -22 63 -49 128 -54 102 -8 152 29 152 114 0 48 -34 77 -120 103 -51
16 -70 27 -76 43 -4 15 -1 25 12 35 24 17 45 16 95 -4 41 -16 42 -16 59 8 10
13 16 27 13 32 -21 34 -156 49 -202 23z"/>
<path d="M1335 201 c-65 -27 -82 -118 -32 -168 22 -22 37 -28 72 -28 51 0 88
26 67 47 -9 9 -15 9 -24 0 -21 -21 -75 -15 -92 10 -34 49 -7 108 49 108 19 0
37 -5 40 -10 5 -8 11 -7 21 1 20 16 18 24 -11 37 -30 14 -61 14 -90 3z"/>
<path d="M1790 105 c0 -98 1 -105 20 -105 17 0 19 8 22 66 l3 66 50 -66 c29
-39 57 -66 68 -66 16 0 17 9 15 102 -3 87 -6 103 -20 106 -14 3 -18 -7 -20
-63 l-3 -66 -49 66 c-29 38 -57 65 -68 65 -16 0 -18 -10 -18 -105z"/>
<path d="M1550 105 l0 -95 76 0 c56 0 75 3 72 13 -3 7 -27 13 -61 15 -53 3
-57 5 -57 27 0 23 4 25 50 25 38 0 50 4 50 15 0 11 -12 15 -50 15 -47 0 -50 2
-50 25 0 24 3 25 55 25 42 0 55 3 55 15 0 12 -14 15 -70 15 l-70 0 0 -95z"/>
<path d="M2060 185 c0 -10 10 -15 30 -15 l30 0 0 -80 c0 -73 2 -80 20 -80 18
0 20 7 20 80 l0 80 30 0 c20 0 30 5 30 15 0 12 -16 15 -80 15 -64 0 -80 -3
-80 -15z"/>
<path d="M2310 105 l0 -95 75 0 c60 0 75 3 75 15 0 12 -13 15 -59 15 -57 0
-58 1 -53 25 4 22 9 25 48 25 32 0 44 4 44 14 0 11 -14 16 -47 18 -40 3 -48 6
-48 23 0 17 8 21 54 25 31 3 56 10 59 18 3 9 -16 12 -72 12 l-76 0 0 -95z"/>
<path d="M2560 100 c0 -82 3 -100 15 -100 10 0 15 11 15 35 0 30 3 35 24 35
15 0 33 -12 49 -33 14 -19 33 -34 41 -34 20 0 20 3 -4 42 -20 32 -20 32 0 50
11 10 20 30 20 45 0 43 -28 60 -98 60 l-62 0 0 -100z m119 46 c4 -25 -24 -46
-61 -46 -25 0 -28 3 -28 36 l0 35 42 -3 c33 -2 44 -7 47 -22z"/>
</g>
</svg>
